<svg width="63" height="79" viewBox="0 0 63 79" fill="none" xmlns="http://www.w3.org/2000/svg">
<g clip-path="url(#clip0)">
<path d="M62.4 42C62.4 36.79 60.03 34.23 58.8 32C56.4462 26.3888 55.0274 20.4299 54.6 14.36C54.53 9.46 52.91 1.92 51.72 -0.0400009C50.86 -0.0400009 50.2 7.74 49.44 11.6C48.01 18.6 45.67 20.54 45 20.6C44.24 17.79 40.89 13.24 31.32 12.88H31.07C21.51 13.24 18.16 17.79 17.4 20.6C16.72 20.54 14.4 18.6 12.96 11.6C12.2 7.76 11.54 -9.16421e-07 10.68 -9.16421e-07C9.49 2 7.87 9.5 7.8 14.4C7.36761 20.4691 5.94901 26.4272 3.6 32.04C2.37 34.23 0 36.79 0 42.04C0 45.79 5.2 49.25 5.64 53.44C5.8 54.63 5.61 55.76 5.8 56.76C7.8 74.25 23.67 78.49 31.24 78.49C38.81 78.49 54.68 74.25 56.68 56.76C56.83 55.76 56.68 54.63 56.8 53.4C57.2 49.21 62.4 45.76 62.4 42V42ZM33.24 26.76C31.8831 26.63 30.5169 26.63 29.16 26.76C27.43 27.1 23.4 27.76 23.4 25.68C23.4 24.62 30.12 23.39 31.2 23.39C32.28 23.39 39 24.62 39 25.68C39 27.76 34.97 27.1 33.24 26.76V26.76Z" fill="#815331"/>
</g>
<defs>
<clipPath id="clip0">
<rect width="62.4" height="78.49" fill="white"/>
</clipPath>
</defs>
</svg>
