<svg width="52" height="50" viewBox="0 0 52 50" fill="none" xmlns="http://www.w3.org/2000/svg">
<g clip-path="url(#clip0)">
<path d="M50.88 0H50.64C48.33 7.69 47.71 17.07 41.24 20.64C40.05 17.28 37.13 15.74 33.8 14.28C31.68 13.34 29.25 11.72 27.2 11.64C26.6789 11.5576 26.1457 11.6678 25.7 11.95C25.2539 11.6686 24.721 11.5585 24.2 11.64C22.14 11.72 19.71 13.34 17.6 14.28C14.27 15.74 11.35 17.28 10.16 20.64C3.71999 17.07 3.09999 7.64 0.799991 0H0.559991C0.289563 0.780728 0.0887793 1.58386 -0.0400085 2.4C-0.0400085 4.32 0.499991 23.86 1.87999 30.84C3.11999 37.13 7.94999 41.67 12.68 44.64C15.97 46.71 21.18 49.47 25.68 49.47C30.18 49.47 35.41 46.71 38.68 44.64C43.4 41.64 48.24 37.13 49.48 30.84C50.85 23.84 51.4 4.32 51.4 2.4C51.2925 1.58713 51.1186 0.784443 50.88 0V0ZM36.95 28.05C36.7 29.6 35.28 31.44 33.59 31.53C30.59 31.7 29.08 27.12 25.73 27.15C22.38 27.18 20.85 31.7 17.87 31.53C16.17 31.44 14.75 29.6 14.51 28.05C14.4067 27.042 14.5066 26.0235 14.8038 25.0548C15.1009 24.0861 15.5893 23.1867 16.24 22.41C17.34 21.34 19.06 21.48 20.92 21.21C22.7099 21.0708 24.4105 20.371 25.78 19.21C27.1495 20.371 28.85 21.0708 30.64 21.21C32.5 21.48 34.21 21.34 35.32 22.41C35.9531 23.1945 36.4233 24.0974 36.7032 25.0658C36.9831 26.0342 37.067 27.0487 36.95 28.05V28.05Z" fill="#815331"/>
</g>
<defs>
<clipPath id="clip0">
<rect width="51.48" height="49.48" fill="white"/>
</clipPath>
</defs>
</svg>
