<svg width="57" height="98" viewBox="0 0 57 98" fill="none" xmlns="http://www.w3.org/2000/svg">
<g clip-path="url(#clip0)">
<path d="M51.12 15.24C50.72 9.79 50.51 4.39 48.6 0C47.83 0 47.07 7.31 46.32 10.92C44.84 18.06 42.61 19.16 41.88 19.16C41.02 15.3 37.5 14.92 34.08 13.28C32.9584 12.7074 31.748 12.3287 30.5 12.16C29.8313 12.1497 29.1627 12.1898 28.5 12.28C27.8373 12.1898 27.1687 12.1497 26.5 12.16C25.2403 12.3516 24.0227 12.7574 22.9 13.36C19.48 15 15.96 15.36 15.1 19.24C14.37 19.24 12.1 18.1 10.66 10.96C9.91001 7.35 9.14001 0.04 8.38001 0.04C6.47001 4.43 6.25001 9.83 5.86001 15.28C4.98001 38.82 -0.019989 51.57 -0.019989 62.44C-0.019989 88.51 11.69 97.72 28.48 97.72C45.27 97.72 56.98 88.51 56.98 62.44C57 51.53 52 38.78 51.12 15.24ZM34.44 24.96C31.65 26.13 29.09 24.25 28.56 24.24H28.44C27.91 24.24 25.35 26.13 22.56 24.96C21.78 21.38 24.96 20.96 28.5 21.05C32.04 20.92 35.22 21.38 34.44 24.96Z" fill="#815331"/>
</g>
<defs>
<clipPath id="clip0">
<rect width="57" height="97.68" fill="white"/>
</clipPath>
</defs>
</svg>
