<svg width="58" height="69" viewBox="0 0 58 69" fill="none" xmlns="http://www.w3.org/2000/svg">
<g clip-path="url(#clip0)">
<path d="M51.6088 22.2C51.7288 20.5 52.0788 18.69 52.3288 16.8C53.0288 11.37 53.9288 5.13 52.2088 0H51.9688C50.6488 3.74 50.7088 8.35 49.8088 12.36C49.2751 15.0806 48.1708 17.6572 46.5688 19.92C46.0388 20.61 45.5088 21.47 44.6488 21.72C43.9888 17.8 40.3688 16.78 36.9688 15.36C34.8388 14.47 32.9688 13.36 30.8488 13.2C30.1766 13.2169 29.5073 13.2938 28.8488 13.43C28.1904 13.2938 27.521 13.2169 26.8488 13.2C24.6988 13.34 22.8488 14.47 20.7288 15.36C17.3388 16.78 13.7288 17.8 13.0488 21.72C12.1888 21.47 11.6588 20.61 11.1288 19.92C9.53492 17.6527 8.43143 15.0779 7.88883 12.36C6.98883 8.36 7.05883 3.74 5.72883 0H5.48883C3.77883 5.13 4.66883 11.37 5.36883 16.8C5.61883 18.69 5.96882 20.5 6.08882 22.2C6.87882 33.2 -0.911174 45.32 0.0888257 51.12C1.01883 58.65 8.48883 60.52 14.2488 63.48C18.5988 65.72 22.5588 68.48 27.5688 68.64H30.1688C35.1688 68.43 39.1688 65.71 43.4888 63.48C49.1688 60.51 56.6788 58.68 57.6088 51.12C58.5588 45.32 50.8188 33.25 51.6088 22.2V22.2ZM28.8488 25.94C26.4514 26.0134 24.0527 25.8459 21.6888 25.44C22.3588 23.44 25.6888 23.88 28.7688 23.88H28.9288C31.9788 23.88 35.3488 23.39 36.0088 25.44C33.6449 25.8462 31.2462 26.0137 28.8488 25.94V25.94Z" fill="#815331"/>
</g>
<defs>
<clipPath id="clip0">
<rect width="57.68" height="68.64" fill="white"/>
</clipPath>
</defs>
</svg>
