<svg width="45" height="105" viewBox="0 0 45 105" fill="none" xmlns="http://www.w3.org/2000/svg">
<g clip-path="url(#clip0)">
<path d="M43.39 -9.76585e-06H43.27C40.46 21.53 37.89 22.56 36.27 22.68C34.65 22.8 32.63 20.91 31.35 20.16C28.6671 18.4246 25.5244 17.5361 22.33 17.61C19.1231 17.5251 15.9654 18.4104 13.27 20.15C11.99 20.9 9.77 22.78 8.35 22.67C6.77 22.55 4.21 21.52 1.35 -0.0100098H1.23C-0.840001 12.2 -0.330001 50.19 2.43 63.59C5.04 82.11 12.54 98.7 15.87 103.19C16.55 104.19 19.4 104.76 22.29 104.77C25.18 104.78 28.03 104.23 28.71 103.19C32.09 98.71 39.58 82.12 42.19 63.61C44.95 50.2 45.46 12.21 43.39 -9.76585e-06ZM22.33 28.15C18.9432 28.1533 15.5587 28.3302 12.19 28.68C13.32 26.93 21.19 25.44 22.33 25.23C23.48 25.44 31.33 26.93 32.47 28.68C29.1013 28.3305 25.7168 28.1536 22.33 28.15V28.15Z" fill="#815331"/>
</g>
<defs>
<clipPath id="clip0">
<rect width="44.66" height="104.78" fill="white"/>
</clipPath>
</defs>
</svg>
