<svg width="95" height="89" viewBox="0 0 95 89" fill="none" xmlns="http://www.w3.org/2000/svg">
<g clip-path="url(#clip0)">
<path d="M87.19 22.42C86.6233 24.16 86.0633 25.9033 85.51 27.65C90.1213 36.7521 91.3456 47.1975 88.9641 57.1193C86.5826 67.0411 80.7505 75.7927 72.51 81.81C73.692 82.5274 74.752 83.4287 75.65 84.48C84.9182 77.4019 91.2295 67.1358 93.3615 55.6705C95.4934 44.2052 93.2943 32.3566 87.19 22.42V22.42ZM9.52 70.34H10.86C5.77878 62.4315 3.42507 53.0775 4.1582 43.7059C4.89132 34.3343 8.67099 25.4601 14.9202 18.438C21.1694 11.4158 29.5449 6.63149 38.768 4.8154C47.9911 2.99932 57.5551 4.25122 66 8.38C66.7149 7.223 67.5314 6.13202 68.44 5.12C59.4052 0.520496 49.127 -1.0397 39.1343 0.671472C29.1416 2.38265 19.9681 7.27378 12.9785 14.6173C5.98884 21.9609 1.55643 31.3645 0.340522 41.4296C-0.875381 51.4946 1.19019 61.6832 6.23 70.48C7.36 70.37 8.48 70.34 9.52 70.34Z" fill="#815331"/>
<path d="M53.45 82C53.89 75.86 52.58 68 54.11 62.93C58.64 62.85 63.67 63.28 67.26 62.27C75.44 47.43 79.26 28.27 85.68 11.63V9C85 6 81.93 5.3 79.1 4.4H78.45C67.85 7.83 66.45 20.5 63.98 32.02C48.18 27.88 31.68 31.96 31.09 47.15C26.57 47.22 23.09 48.37 21.23 51.09C20.66 57.84 22.8 61.84 27.81 63C26.8585 67.8548 24.3098 72.2515 20.57 75.49C14.17 76.11 4.94 73.89 1.5 77.49V80.12C4.65 83.98 14.35 81.3 20.57 82.12C27.16 78.11 29 69.45 32.41 62.31C37.08 62.68 43.27 61.53 46.88 62.97V82.7C39.05 83.2 31.43 83.91 27.81 88.62H72.53C69.27 83.33 60.05 84 53.45 82ZM37.67 47.19C38.35 35.48 53 35.5 63.32 38.64C63.42 43.36 62.8 48.8 64.63 51.79C57.59 50.94 47.56 47.39 37.67 47.19V47.19Z" fill="#815331"/>
</g>
<defs>
<clipPath id="clip0">
<rect width="94.16" height="88.62" fill="white"/>
</clipPath>
</defs>
</svg>
