<svg width="95" height="95" viewBox="0 0 95 95" fill="none" xmlns="http://www.w3.org/2000/svg">
<g clip-path="url(#clip0)">
<path d="M90.28 28.39C88.1906 23.5833 85.3182 19.1566 81.78 15.29L79.78 19.07C82.371 22.0913 84.5314 25.4565 86.2 29.07C87.56 28.84 88.92 28.62 90.28 28.39ZM90 43.56C90.09 44.73 90.15 45.9 90.15 47.08C90.15 58.5038 85.6126 69.4598 77.5357 77.5386C69.4588 85.6174 58.5038 90.1574 47.08 90.16C46.3 90.16 45.52 90.14 44.74 90.1C44.9009 90.7005 44.9882 91.3184 45 91.94C44.9868 92.6739 44.8516 93.4005 44.6 94.09C45.43 94.09 46.27 94.16 47.12 94.16C59.5954 94.1362 71.5524 89.1671 80.3701 80.3419C89.1878 71.5167 94.1468 59.5554 94.16 47.08C94.1552 45.02 94.0183 42.9624 93.75 40.92C92.5549 41.8755 91.3026 42.7571 90 43.56V43.56ZM4 47.08C4.00018 39.515 5.99243 32.0835 9.77635 25.5329C13.5603 18.9822 19.0024 13.5435 25.5555 9.76375C32.1085 5.98397 39.5413 3.99644 47.1062 4.00105C54.6712 4.00565 62.1016 6.00225 68.65 9.79C69.73 8.93 70.86 8.06 72.01 7.17C66.4663 3.69675 60.2594 1.41721 53.7855 0.476836C47.3115 -0.463537 40.7127 -0.0440955 34.4099 1.7084C28.1071 3.46089 22.2388 6.50795 17.1795 10.6552C12.1201 14.8024 7.98081 19.9587 5.02563 25.795C2.07046 31.6314 0.364327 38.0197 0.0160833 44.5523C-0.33216 51.0849 0.685138 57.6184 3.00307 63.7359C5.321 69.8534 8.88866 75.4205 13.4784 80.0821C18.0682 84.7437 23.5793 88.3974 29.66 90.81C29.2775 89.3101 29.086 87.7679 29.09 86.22C21.601 82.7809 15.2562 77.2649 10.8088 70.3271C6.36141 63.3893 3.9983 55.3209 4 47.08V47.08Z" fill="#815331"/>
<path d="M38.77 84.91C46.51 82.19 55.08 75.24 53.31 65.08C52.41 59.94 48.83 60.08 46.04 55.83C60.48 43.83 70.25 27.17 79.04 9.57001H77.04C69.59 15.23 55.13 26.57 48.62 36C46.02 39.78 44.03 45.31 41.35 49.88C36.81 57.63 26.23 71.11 34.74 80.94C33.36 85.56 33.54 93.33 38.74 93.5C42 91.77 37.38 88.89 38.77 84.91V84.91ZM47.08 46.08C47.5931 46.078 48.0952 46.2285 48.5227 46.5123C48.9501 46.7962 49.2836 47.2006 49.4809 47.6742C49.6782 48.1479 49.7303 48.6695 49.6307 49.1728C49.5311 49.6762 49.2842 50.1386 48.9214 50.5014C48.5586 50.8642 48.0962 51.1111 47.5928 51.2107C47.0895 51.3103 46.5679 51.2582 46.0942 51.0609C45.6206 50.8637 45.2162 50.5301 44.9323 50.1027C44.6485 49.6752 44.498 49.1731 44.5 48.66C44.5026 47.9766 44.7753 47.3219 45.2586 46.8386C45.7418 46.3553 46.3966 46.0826 47.08 46.08V46.08ZM36.79 75C34.93 66 43.79 58.05 48.68 65.75C48.94 73.16 42.5 81.51 36.79 75Z" fill="#815331"/>
<path d="M56 51.2C70 46 86.58 43.45 95 32.7C85.59 34.08 76.88 36.17 67.25 37.32C65.05 43.56 60.16 47 56 51.2ZM12.34 40C8.11 52.25 20.76 56 34.14 53.88C37.93 49.06 39.99 43.88 36.14 38.01C31.23 30.52 15.22 31.61 12.34 40V40ZM17.62 47.27C12.5 36.4 30.51 36.17 32.16 42C34.34 49.58 23.06 50 17.62 47.24V47.27Z" fill="#815331"/>
</g>
<defs>
<clipPath id="clip0">
<rect width="94.94" height="94.16" fill="white"/>
</clipPath>
</defs>
</svg>
