<svg xmlns="http://www.w3.org/2000/svg" viewBox="0 0 15 15"><path d="M14.45 12.58c-.43-.41-.91-1.15-3.23-1.48S9.33 9.59 9.31 9.52s0-.94 0-.94A4 4 0 0010.49 7c.56-.35.77-.4.86-.8 0 0 .17-1.57-.36-1.56 0 0-.25.08-.17-.27a9.62 9.62 0 000-1.86c0-.4 0-1.53-.82-1.68a4.06 4.06 0 00-.93 0C8.8.72 8.46 0 7.94 0L6.87.23c-.52 0-.44.23-.72.27s0-.12-.79 0-1.14 1.27-1.18 1.66a20.39 20.39 0 000 2.1c.08.35-.2.35-.2.35-.51 0-.28 1.52-.28 1.52.07.38 0 .57.72.87a3.21 3.21 0 001.27 1.52v1.07c-.08 0 .25 1.17-2.07 1.51S.88 12.17.44 12.58 0 15 0 15h15s-.11-2-.55-2.42z"/></svg>