<svg id="logo-desktop" data-name="Layer 1" xmlns="http://www.w3.org/2000/svg" viewBox="0 0 369.46 153.05"><defs><style>.cls-1{fill:#fff}.cls-2{fill:#636466}</style></defs><path class="cls-1" d="M119.86 11.43C127 9 127.59 0 120.51 0c-2 0-4.28 1.37-5.88 4.17l-9.58 16.56a13.91 13.91 0 01-1.37 2c-2.47-3.38-1.75-8.45 1.71-10.67L104 10.27c-7.46 4.75-5.27 18.47 7.18 18.47 10.6 0 15.52-12.74 8.68-17.31zM111.07 26a10.26 10.26 0 01-5.13-1.23 18.49 18.49 0 001.77-2.53l6-10.37 1 .1C123 13.72 119.69 26 111.07 26zm3.83-16.21l2.87-4.93c2.6-4.48 5.92-1.85 4.14 1.5-1.37 2.57-3.39 3.36-7.01 3.43z"/><path class="cls-1" d="M259.21 19l-.24.28a16.76 16.76 0 01-6.5 5c.58-.92 1-1.91 1.47-2.67l3.94-6.74c3.32-5.64-2.06-7.52-5.68-4.27l.72-1.23h-3.56L243.79 19l-.24.27a7.66 7.66 0 01-5.37 2.63l3.35-5.78c2.16-3.73.18-7.25-3.18-7.25-2.74 0-4.86 1.09-6.91 4.65l-1.74 3.05-1.47 2.43-.19.22c-2.56 3-5.06 5.34-6.63 5.34-.79 0-1.24-.55-.42-1.95l5.14-9c1.54-2.7.07-4.65-1.92-4.65-1.54 0-3.18.85-5 2.7l5.68-9.89h-3.56L211.45 19l-.21.23A22 22 0 01207 23.1c1.13-3.39.89-8.59 3.08-13.14l-2.67-1.44c-1.47 2-4.69 6.67-7.9 10.44l-.24.27c-2.57 3-5.07 5.34-6.64 5.34-.79 0-1.23-.55-.41-1.95l3.56-6.23c1.23-2.16.65-3.42-.52-4.82l-2-2.4a1.39 1.39 0 01.2-2l-1.84-2c-2 1.81-2.19 3.83-.93 5.47l.31.36c-1.57 2.23-3.69 5.24-6 8l-.24.27c-2.56 3-5.85 5.34-8.35 5.34-2.19 0-3.49-1.37-1.84-4.24l.34-.62c2.29 1 6.6.51 9.27-4.11l.51-.89c1.92-3.28.07-5.74-2.84-5.74a7.53 7.53 0 00-6.67 4.1L171.7 19l-.21.24a7.63 7.63 0 01-5.37 2.64l3.35-5.79a8.66 8.66 0 001.34-4.09 3 3 0 00-3.22-3.18 4.16 4.16 0 00-2.33.79l4.52-7.84h-3.63L156.18 19l-.19.21c-2.57 3-5.06 5.34-6.64 5.34-.78 0-1.23-.55-.41-1.95l3.56-6.23c1.23-2.15.65-3.42-.51-4.82l-2-2.4a1.39 1.39 0 01.21-2l-1.85-2c-2 1.81-2.19 3.83-.92 5.48l.31.41c-1.58 2.22-3.7 5.23-6 8l-.24.27c-2.57 3-5.07 5.34-6.64 5.34-.79 0-1.23-.55-.41-1.95l5.75-10.06h-2A3.7 3.7 0 00134.44 9c-1.92 0-4.59 1.5-6.09 4.1l-5 8.62c-1.5 2.64-.44 5.07 2.43 5.07 1.44 0 3.22-.93 4.93-2.33.17 1.37 1.27 2.33 3.08 2.33 2.94 0 6.33-3.15 9.27-6.57 1.71-2 3.05-3.76 5.89-7.63l.47.58a1.74 1.74 0 01.21 2l-3.76 6.53c-1.51 2.64-.45 5.07 2.42 5.07 2.07 0 4.35-1.55 6.54-3.65 0 2.43 1.81 3.8 4.11 3.8a7.87 7.87 0 006.06-3.31 6.87 6.87 0 00.79 0 10.4 10.4 0 004.72-1.4c-.18 2.57 1.68 4.52 4.82 4.52 4 0 8-3.15 11-6.57 1.71-2 3-3.76 5.88-7.63l.48.58a1.76 1.76 0 01.2 2l-3.76 6.54c-1.51 2.63-.44 5.06 2.43 5.06s6.33-3.15 9.27-6.57c2-2.32 3.8-4.82 5.06-6.5-1.4 3.7-.65 10.33-4 10.33a2 2 0 01-1.68-1.3l-2.22 1.17a3.88 3.88 0 003.9 2.87 8.24 8.24 0 001-.07h.1a12.67 12.67 0 005.47-2.36l-1.23 2.12h3.6l5.4-9.41c5.48-6.87 7.9-6 6.36-3.35l-4.61 8c-1.51 2.63-.45 5.06 2.43 5.06 2.06 0 4.35-1.55 6.55-3.66 0 4.53 6.29 5.42 10.14.55h.79a10 10 0 003.81-.94L235.16 34h3.59l10.64-18.51c4-5.41 6.47-3.42 5.55-1.82l-5.37 9.31c-.59 1-1.92 1.34-2.57 0l-2 1a3.88 3.88 0 003.9 2.87h.21c5.16-.1 8.55-3.18 11.46-6.57a2.29 2.29 0 00-1.36-1.28zm-81-5c2.06-3.53 5.68-2.94 3.56.75l-.51.89c-1.71 2.91-4 2.84-5.34 2.36zm-45.6 5.61c-2.16 3.39-4.28 5-5.75 5-.79 0-1.23-.54-.41-1.94l5-8.66c1.92-3.32 5.71-2.46 4 .75zm26.79 4.86a1.33 1.33 0 01-1.44-1.37 3.93 3.93 0 01.62-1.85l1.24-2.25a5.26 5.26 0 002.26 3.7 3.34 3.34 0 01-2.7 1.73zm3.7-3.47a3.84 3.84 0 01-1.5-3.21c0-2.54 2.46-6.68 4.48-6.68a1.36 1.36 0 011.34 1.54 4.37 4.37 0 01-.69 2.13zm73.08-1.78H236a2.1 2.1 0 00-2.08 2.12 2.28 2.28 0 00.34 1.2v.07c-1.67 2.87-5.74 2.33-3.62-1.37l2.7-4.69 1.71-2.9c2.5-4.25 5.92-2.57 3.77 1.13z"/><path class="cls-1" transform="rotate(-44.99 5.712 73.272)" d="M1.68 69.23h8.08v8.08H1.68z"/><path class="cls-1" transform="rotate(-44.99 357.75 73.253)" d="M353.67 69.22h8.08v8.08h-8.08z"/><path class="cls-2" d="M46.8 73.48h2.08v-8.32h3.27v-2.09H46.8v10.41zM61.69 75V62.32a4.59 4.59 0 00-2.56-4.07 4.46 4.46 0 01.48 2v12.68A4.5 4.5 0 0158 76.44a5.19 5.19 0 011.66 3.69v14.11a4.63 4.63 0 01-4.56 4.55H41.49v2.09h15.64a4.63 4.63 0 004.56-4.56V82.21A5.21 5.21 0 0060 78.52 4.46 4.46 0 0061.69 75z"/><path class="cls-2" d="M46.8 91.34h2.08v-8.39h3.27v-2.08H46.8v10.47zm33.01 0h2.08V65.16h3.27v-2.09h-5.35v28.27z"/><path class="cls-2" d="M92.14 58.25a4.46 4.46 0 01.48 2v34a4.62 4.62 0 01-4.56 4.56H77a4.43 4.43 0 01-2-.48 4.57 4.57 0 004.07 2.56h11.08a4.62 4.62 0 004.55-4.55v-34a4.59 4.59 0 00-2.56-4.09zm20.68 15.23h2.08v-8.32h3.28v-2.09h-5.36v10.41zm12.25 9.04a4.46 4.46 0 002.58-4.06V62.32a4.55 4.55 0 00-2.56-4.09 4.62 4.62 0 01.48 2v16.14a4.48 4.48 0 01-2.57 4.07l3.08 18.35h-5.68l.35 2.08h7.4zm-9.42-1.65h-2.83v17.92h-5.31v2.09h7.39V82.95h1.1l-.35-2.08zm29.19 10.47h2.09V65.16h3.27v-2.09h-5.36v28.27z"/><path class="cls-2" d="M157.18 58.25a4.46 4.46 0 01.48 2v34a4.63 4.63 0 01-4.56 4.56H142a4.42 4.42 0 01-2-.48 4.54 4.54 0 004.07 2.56h11.08a4.62 4.62 0 004.56-4.55v-34a4.59 4.59 0 00-2.53-4.09zm20.67 33.09h2.09V65.16h3.27v-2.09h-5.36v28.27z"/><path class="cls-2" d="M190.19 58.25a4.46 4.46 0 01.48 2v34a4.63 4.63 0 01-4.56 4.56h-13.56v2.08h15.64a4.62 4.62 0 004.56-4.55v-34a4.59 4.59 0 00-2.56-4.09zm21.05-.48v41.02h-5.31v2.09h7.39V57.77h-2.08zm32.88 0v41.02h-5.9l.59 2.09h7.4V57.77h-2.09zm-12.81 22.18v18.84h-5.3v2.09h7.39V87.19l-2.09-7.24zM263.58 83h6.11v-2.13h-8.19a4.44 4.44 0 01-2-.48 4.52 4.52 0 004.08 2.61zm2.83 2.73l-2.09.48v5.13h2.09v-5.61zm10.25-27.48a4.6 4.6 0 01.48 2V69l-5.37 1.25v2.56l7.45-1.72v-8.77a4.59 4.59 0 00-2.56-4.07z"/><path class="cls-2" d="M276.66 76.05a4.56 4.56 0 01.48 2v16.18a4.63 4.63 0 01-4.56 4.56h-11.09a4.42 4.42 0 01-2-.48 4.54 4.54 0 004.07 2.56h11.08a4.63 4.63 0 004.56-4.55v-16.2a4.59 4.59 0 00-2.54-4.07zm-12.34-12.98v10.41h2.09v-8.32h3.27v-2.09h-5.36zm33.69 17.8h-.68v17.92h-5.3v2.09h7.39V85.35l-1.41-4.48zm15.14-23.1h-2.75l-6.23 19.41 6.9 21.61h-6.01l.58 1.84.06.25h7.45l-6.9-21.62 6.9-21.49zm17.38 0v41.02h-5.3v2.09h7.38V57.77h-2.08z"/><path class="cls-1" d="M167.9 123.85h1.41c5.43.27 9.68 1.72 12.39 4.72 2.74-3 7-4.46 12.46-4.72h1.34c12.11.82 17.63 9.49 27.31 13.19a11.07 11.07 0 004.78 1c2.48-.27 4.06-2.78 3.74-5.59-.34-3-3.27-5.6-6.56-4.17a4.46 4.46 0 00-1.17.8c-.25.23-.53.83-1.16.61-.6-.49 0-1.22.31-1.65a6 6 0 016.07-3c5.63.4 10.67 5.34 9.81 12.82-1.92 11.21-12.1 14.15-24.17 15.22h-3.92A48.36 48.36 0 01181.76 142a49.06 49.06 0 01-28.89 11.05H149c-12.16-1.07-22.44-4-24.23-15.46-.68-8.16 4.18-12.18 9.81-12.58a6.13 6.13 0 016.14 3c.28.46.8 1.16.31 1.72-.61.1-.91-.37-1.17-.62a4 4 0 00-2.82-1.23c-3.86-.14-6.08 4.16-4.54 7.61a4.33 4.33 0 003.37 2.52 11.77 11.77 0 004.79-1 23.93 23.93 0 003.86-1.91c7.37-4.29 13.12-10.34 23.38-11.25z" id="UUIVGv.tif"/><path class="cls-2" transform="rotate(-45.01 365.518 81.137)" d="M361.52 79.65h8.08v2.95h-8.08z"/><path class="cls-2" transform="rotate(-45 13.57 81.14)" d="M9.53 79.66h8.08v2.95H9.53z"/><path class="cls-1" d="M55.65 69A4.5 4.5 0 0154 72.48a5.19 5.19 0 011.66 3.69v14.1a4.62 4.62 0 01-4.56 4.56H35.45V51.72h15.64a4.59 4.59 0 014.56 4.56V69zm-7.45-9.89h-5.36v10.41h5.36zm0 17.8h-5.36v10.47h5.36zm35.9-25.19a4.59 4.59 0 014.56 4.56v34a4.62 4.62 0 01-4.56 4.55H73a4.58 4.58 0 01-4.56-4.55v-34A4.55 4.55 0 0173 51.72zm-2.89 7.39h-5.36v28.27h5.36zm33.5 35.72l-3-17.92h-2.83v17.92h-7.39V51.72h15.64a4.54 4.54 0 014.5 4.56v16.14a4.47 4.47 0 01-2.63 4.06l3.08 18.35zm-.49-35.72h-5.36v10.41h5.36zm34.92-7.39a4.59 4.59 0 014.56 4.56v34a4.62 4.62 0 01-4.56 4.55h-11.08a4.58 4.58 0 01-4.56-4.55v-34a4.55 4.55 0 014.56-4.56zm-2.89 7.39h-5.36v28.27h5.36zm35.9-7.39a4.59 4.59 0 014.56 4.56v34a4.62 4.62 0 01-4.56 4.55h-15.64V51.72zm-2.89 7.39h-5.36v28.27h5.36zm20.63-7.39h7.39v43.11h-7.39zm40.28 0v43.11h-7.39L227.36 76v18.83H220V51.72h7.32l5.42 17.68V51.72zm28.45 17.8a4.59 4.59 0 014.56 4.56v16.2a4.63 4.63 0 01-4.56 4.55h-11.08a4.58 4.58 0 01-4.54-4.55v-8.87l7.39-1.73v7.7h5.36V76.91h-8.19a4.55 4.55 0 01-4.56-4.56V56.28a4.55 4.55 0 014.56-4.56h11.08a4.6 4.6 0 014.56 4.56V65l-7.45 1.72v-7.61h-5.36v10.41zm31.6 3.7l6.89 21.61h-7.45l-.06-.24-5.54-17.68h-.68v17.92H286V51.72h7.39v17.8h.55l5.67-17.8h7.51zm18.97-21.5h7.39v43.11h-7.39z"/></svg>