<svg id="logo-mobile" data-name="Layer 1" xmlns="http://www.w3.org/2000/svg" viewBox="0 0 225.81 30.04"><defs><style>.cls-1{fill:#fff}.cls-2{fill:#636466}</style></defs><path class="cls-1" transform="rotate(-45 3.496 13.172)" d="M1.02 10.7h4.94v4.94H1.02z"/><path class="cls-1" transform="rotate(-45 218.621 13.184)" d="M216.15 10.71h4.94v4.94h-4.94z"/><path class="cls-2" d="M28.6 13.3h1.28V8.21h2V6.94H28.6v6.36zm9.11.93V6.48A2.81 2.81 0 0036.14 4a2.77 2.77 0 01.29 1.21V13a2.69 2.69 0 01-1 2.14 3.17 3.17 0 011 2.26V26a2.83 2.83 0 01-2.78 2.79h-8.29V30h9.56a2.84 2.84 0 002.79-2.79v-8.57a3.2 3.2 0 00-1-2.26 2.74 2.74 0 001-2.15z"/><path class="cls-2" d="M28.6 24.21h1.28v-5.12h2v-1.28H28.6v6.4zm20.18 0h1.27v-16h2V6.94h-3.27v17.27z"/><path class="cls-2" d="M56.31 4a2.64 2.64 0 01.3 1.21V26a2.83 2.83 0 01-2.79 2.79h-6.77a2.78 2.78 0 01-1.22-.3A2.79 2.79 0 0048.32 30h6.77a2.83 2.83 0 002.79-2.79V6.48A2.79 2.79 0 0056.31 4zm12.64 9.3h1.28V8.21h2V6.94h-3.28v6.36zm7.49 5.52A2.72 2.72 0 0078 16.34V6.48A2.8 2.8 0 0076.45 4a2.87 2.87 0 01.3 1.24v9.86a2.73 2.73 0 01-1.59 2.48l1.89 11.22h-3.46l.21 1.2h4.52zm-5.75-1.01h-1.74v10.96h-3.24v1.27h4.52V19.09h.67l-.21-1.28zm17.84 6.4h1.27v-16h2V6.94h-3.27v17.27z"/><path class="cls-2" d="M96.06 4a2.64 2.64 0 01.3 1.21V26a2.83 2.83 0 01-2.79 2.79h-6.78a2.77 2.77 0 01-1.21-.3A2.79 2.79 0 0088.07 30h6.77a2.83 2.83 0 002.79-2.79V6.48A2.79 2.79 0 0096.06 4zm12.64 20.21h1.28v-16h2V6.94h-3.28v17.27z"/><path class="cls-2" d="M116.24 4a2.77 2.77 0 01.29 1.21V26a2.83 2.83 0 01-2.78 2.79h-8.29V30H115a2.83 2.83 0 002.78-2.79V6.48A2.8 2.8 0 00116.24 4zm12.86-.31v25.08h-3.24v1.27h4.52V3.69h-1.28zm20.11 0v25.08h-3.61l.36 1.27h4.52V3.69h-1.27zm-7.83 13.56v11.52h-3.25v1.27h4.52v-8.36l-1.27-4.43zm19.71 1.84h3.74v-1.28h-5a2.64 2.64 0 01-1.22-.29 2.76 2.76 0 002.48 1.57zm1.73 1.69l-1.27.3v3.13h1.27v-3.43zM169.09 4a2.77 2.77 0 01.29 1.21v5.35l-3.28.76v1.57l4.55-1.06V6.48A2.8 2.8 0 00169.09 4z"/><path class="cls-2" d="M169.09 14.87a2.77 2.77 0 01.29 1.21V26a2.83 2.83 0 01-2.79 2.79h-6.77a2.71 2.71 0 01-1.21-.3 2.77 2.77 0 002.48 1.51h6.78a2.83 2.83 0 002.78-2.79v-9.9a2.78 2.78 0 00-1.56-2.44zm-7.54-7.93v6.36h1.27V8.21h2.01V6.94h-3.28zm20.59 10.87h-.41v10.96h-3.25v1.27H183v-9.49l-.86-2.74zm9.25-14.12h-1.68l-3.8 11.86 4.21 13.22h-3.67l.35 1.12.04.15h4.55l-4.21-13.21 4.21-13.14zm10.63 0v25.08h-3.25v1.27h4.52V3.69h-1.27z"/><path class="cls-2" transform="rotate(-45.01 223.423 17.98)" d="M220.96 17.08h4.94v1.8h-4.94z"/><path class="cls-2" transform="rotate(-45 8.295 17.974)" d="M5.83 17.08h4.94v1.8H5.83z"/><path class="cls-1" d="M34 10.54a2.75 2.75 0 01-1 2.15 3.16 3.16 0 011 2.25v8.62a2.83 2.83 0 01-2.78 2.79h-9.55V0h9.56A2.8 2.8 0 0134 2.79zm-4.55-6h-3.27v6.36h3.28zm0 10.88h-3.27v6.39h3.28zM51.4 0a2.8 2.8 0 012.79 2.79v20.77a2.83 2.83 0 01-2.79 2.79h-6.77a2.8 2.8 0 01-2.79-2.79V2.79A2.78 2.78 0 0144.63 0zm-1.77 4.52h-3.27v17.27h3.27zm20.48 21.83l-1.85-11h-1.73v11H62V0h9.56a2.78 2.78 0 012.75 2.79v9.86a2.74 2.74 0 01-1.58 2.48l1.88 11.22zm-.3-21.83h-3.28v6.36h3.28zM91.15 0a2.8 2.8 0 012.79 2.79v20.77a2.83 2.83 0 01-2.79 2.79h-6.77a2.8 2.8 0 01-2.79-2.79V2.79A2.78 2.78 0 0184.38 0zm-1.77 4.52h-3.27v17.27h3.27zM111.33 0a2.8 2.8 0 012.78 2.79v20.77a2.83 2.83 0 01-2.78 2.79h-9.56V0zm-1.77 4.52h-3.28v17.27h3.28zM122.17 0h4.52v26.35h-4.52zm24.61 0v26.35h-4.51L139 14.83v11.52h-4.52V0h4.48l3.31 10.8V0zm17.4 10.88a2.8 2.8 0 012.82 2.78v9.9a2.83 2.83 0 01-2.78 2.79h-6.82a2.8 2.8 0 01-2.78-2.79v-5.42l4.51-1.05v4.7h3.28v-6.4h-5a2.77 2.77 0 01-2.78-2.78V2.79A2.78 2.78 0 01157.4 0h6.77A2.8 2.8 0 01167 2.79v5.34l-4.56 1V4.52h-3.27v6.36zm19.3 2.26l4.22 13.21h-4.55v-.15l-3.39-10.81h-.41v11h-4.52V0h4.52v10.88h.34L183.11 0h4.59zM195.08 0h4.52v26.35h-4.52z"/></svg>