<svg width="95" height="92" viewBox="0 0 95 92" fill="none" xmlns="http://www.w3.org/2000/svg">
<g clip-path="url(#clip0)">
<path d="M47.08 8.17C48.8831 8.16406 50.6473 8.69331 52.1494 9.69071C53.6515 10.6881 54.8238 12.1088 55.5179 13.7729C56.212 15.437 56.3967 17.2697 56.0486 19.0388C55.7005 20.808 54.8352 22.434 53.5624 23.7111C52.2895 24.9881 50.6663 25.8587 48.8983 26.2127C47.1304 26.5666 45.2971 26.388 43.6307 25.6994C41.9643 25.0108 40.5398 23.8431 39.5374 22.3444C38.5351 20.8456 38 19.0831 38 17.28C38 14.8691 38.9557 12.5564 40.6576 10.8488C42.3596 9.14125 44.6691 8.17794 47.08 8.17V8.17Z" fill="#815331"/>
<path d="M67.46 26.38H26.7C25.9538 26.3826 25.2391 26.6809 24.7124 27.2095C24.1857 27.7381 23.89 28.4538 23.89 29.2V33.67C23.8926 34.4154 24.1892 35.1296 24.7153 35.6576C25.2414 36.1856 25.9546 36.4847 26.7 36.49H27.53V81.88H26.7C25.9538 81.8826 25.2391 82.1809 24.7124 82.7095C24.1857 83.2381 23.89 83.9538 23.89 84.7V89.17C23.89 89.9171 24.1854 90.6339 24.7118 91.1641C25.2382 91.6942 25.9529 91.9947 26.7 92H67.46C68.2071 91.9974 68.9228 91.6994 69.4511 91.1711C69.9794 90.6428 70.2774 89.9271 70.28 89.18V84.7C70.2774 83.9529 69.9794 83.2372 69.4511 82.7089C68.9228 82.1806 68.2071 81.8826 67.46 81.88H66.63V36.49H67.46C68.2071 36.4874 68.9228 36.1894 69.4511 35.6611C69.9794 35.1328 70.2774 34.4171 70.28 33.67V29.2C70.2774 28.4529 69.9794 27.7372 69.4511 27.2089C68.9228 26.6806 68.2071 26.3826 67.46 26.38V26.38ZM33.66 36.49H46.86L33.66 49.69V36.49ZM60.5 81.88H47L60.5 68.41V81.88ZM60.5 53.17L33.66 80V64.93L60.5 38.09V53.17Z" fill="#815331"/>
<path d="M47.08 1.25586e-07C37.1919 -0.000721902 27.5546 3.11192 19.5349 8.89643C11.5153 14.6809 5.52057 22.8437 2.40098 32.2268C-0.718613 41.6099 -0.804672 51.7371 2.15501 61.1718C5.11469 70.6066 10.9699 78.87 18.89 84.79V84.7C18.8953 83.2517 19.3002 81.833 20.06 80.6C13.1115 75.0112 8.06845 67.4039 5.62663 58.8276C3.18481 50.2512 3.46454 41.1284 6.42723 32.7178C9.38992 24.3072 14.8896 17.0231 22.1674 11.8706C29.4453 6.71802 38.1428 3.95087 47.06 3.95087C55.9772 3.95087 64.6747 6.71802 71.9526 11.8706C79.2305 17.0231 84.7301 24.3072 87.6928 32.7178C90.6555 41.1284 90.9352 50.2512 88.4934 58.8276C86.0516 67.4039 81.0085 75.0112 74.06 80.6C74.8272 81.8302 75.2359 83.2502 75.24 84.7V84.79C83.1519 78.8683 89.0003 70.6076 91.9568 61.1776C94.9133 51.7477 94.8281 41.6266 91.7132 32.2478C88.5984 22.869 82.6118 14.7079 74.6013 8.92024C66.5908 3.13262 56.9625 0.0118748 47.08 1.25586e-07V1.25586e-07Z" fill="#815331"/>
</g>
<defs>
<clipPath id="clip0">
<rect width="94.16" height="91.99" fill="white"/>
</clipPath>
</defs>
</svg>
