<svg xmlns="http://www.w3.org/2000/svg" xmlns:xlink="http://www.w3.org/1999/xlink"><symbol id="icon-bread-1" viewBox="0 0 51.48 49.48"><path d="M50.88 0h-.24c-2.31 7.69-2.93 17.07-9.4 20.64-1.19-3.36-4.11-4.9-7.44-6.36-2.12-.94-4.55-2.56-6.6-2.64a2.17 2.17 0 00-1.5.31 2.18 2.18 0 00-1.5-.31c-2.06.08-4.49 1.7-6.6 2.64-3.33 1.46-6.25 3-7.44 6.36C3.72 17.07 3.1 7.64.8 0H.56a14 14 0 00-.6 2.4c0 1.92.54 21.46 1.92 28.44 1.24 6.29 6.07 10.83 10.8 13.8 3.29 2.07 8.5 4.83 13 4.83s9.73-2.76 13-4.83c4.72-3 9.56-7.51 10.8-13.8 1.37-7 1.92-26.52 1.92-28.44a15 15 0 00-.52-2.4zM36.95 28.05c-.25 1.55-1.67 3.39-3.36 3.48-3 .17-4.51-4.41-7.86-4.38s-4.88 4.55-7.86 4.38c-1.7-.09-3.12-1.93-3.36-3.48a7.58 7.58 0 011.73-5.64c1.1-1.07 2.82-.93 4.68-1.2a8.54 8.54 0 004.86-2 8.54 8.54 0 004.86 2c1.86.27 3.57.13 4.68 1.2a7.58 7.58 0 011.63 5.64z"/></symbol><symbol id="icon-bread-2" viewBox="0 0 57.68 68.64"><path d="M80.44 56.52c.12-1.7.47-3.51.72-5.4.7-5.43 1.6-11.67-.12-16.8h-.24c-1.32 3.74-1.26 8.35-2.16 12.36a19.62 19.62 0 01-3.24 7.56c-.53.69-1.06 1.55-1.92 1.8-.66-3.92-4.28-4.94-7.68-6.36-2.13-.89-4-2-6.12-2.16a11.27 11.27 0 00-2 .23 11.27 11.27 0 00-2-.23c-2.15.14-4 1.27-6.12 2.16-3.39 1.42-7 2.44-7.68 6.36-.86-.25-1.39-1.11-1.92-1.8a19.93 19.93 0 01-3.24-7.56c-.9-4-.83-8.62-2.16-12.36h-.24c-1.71 5.13-.82 11.37-.12 16.8.25 1.89.6 3.7.72 5.4.79 11-7 23.12-6 28.92.93 7.53 8.4 9.4 14.16 12.36 4.35 2.24 8.31 5 13.32 5.16H59c5-.21 9-2.93 13.32-5.16C78 94.83 85.51 93 86.44 85.44c.95-5.8-6.79-17.87-6-28.92zm-22.76 3.74a35.83 35.83 0 01-7.16-.5c.67-2 4-1.56 7.08-1.56h.16c3.05 0 6.42-.49 7.08 1.56a35.78 35.78 0 01-7.16.5z"/></symbol><symbol id="icon-bread-3" viewBox="0 0 62.4 78.49"><path d="M62.4 42c0-5.21-2.37-7.77-3.6-10a55.72 55.72 0 01-4.2-17.64c-.07-4.9-1.69-12.44-2.88-14.4-.86 0-1.52 7.78-2.28 11.64-1.43 7-3.77 8.94-4.44 9-.76-2.81-4.11-7.36-13.68-7.72h-.25c-9.56.36-12.91 4.91-13.67 7.72-.68-.06-3-2-4.44-9C12.2 7.76 11.54 0 10.68 0 9.49 2 7.87 9.5 7.8 14.4a56 56 0 01-4.2 17.64c-1.23 2.19-3.6 4.75-3.6 10 0 3.75 5.2 7.21 5.64 11.4.16 1.19-.03 2.32.16 3.32 2 17.49 17.87 21.73 25.44 21.73s23.44-4.24 25.44-21.73c.15-1 0-2.13.12-3.36.4-4.19 5.6-7.64 5.6-11.4zM33.24 26.76a21.39 21.39 0 00-4.08 0c-1.73.34-5.76 1-5.76-1.08 0-1.06 6.72-2.29 7.8-2.29s7.8 1.23 7.8 2.29c0 2.08-4.03 1.42-5.76 1.08z"/></symbol><symbol id="icon-bread-4" viewBox="0 0 57 97.68"><path d="M51.12 15.24C50.72 9.79 50.51 4.39 48.6 0c-.77 0-1.53 7.31-2.28 10.92-1.48 7.14-3.71 8.24-4.44 8.24-.86-3.86-4.38-4.24-7.8-5.88a11.16 11.16 0 00-3.58-1.12 13.32 13.32 0 00-2 .12 13.32 13.32 0 00-2-.12 11.16 11.16 0 00-3.6 1.2c-3.42 1.64-6.94 2-7.8 5.88-.73 0-3-1.14-4.44-8.28C9.91 7.35 9.14.04 8.38.04 6.47 4.43 6.25 9.83 5.86 15.28 4.98 38.82-.02 51.57-.02 62.44c0 26.07 11.71 35.28 28.5 35.28s28.5-9.21 28.5-35.28C57 51.53 52 38.78 51.12 15.24zm-16.68 9.72c-2.79 1.17-5.35-.71-5.88-.72h-.12c-.53 0-3.09 1.89-5.88.72-.78-3.58 2.4-4 5.94-3.91 3.54-.13 6.72.33 5.94 3.91z"/></symbol><symbol id="icon-bread-5" viewBox="0 0 44.66 104.78"><path d="M43.39 0h-.12c-2.81 21.53-5.38 22.56-7 22.68s-3.64-1.77-4.92-2.52a15.93 15.93 0 00-9.02-2.55 15.93 15.93 0 00-9.06 2.54c-1.28.75-3.5 2.63-4.92 2.52-1.58-.12-4.14-1.15-7-22.68h-.12c-2.07 12.21-1.56 50.2 1.2 63.6 2.61 18.52 10.11 35.11 13.44 39.6.68 1 3.53 1.57 6.42 1.58s5.74-.54 6.42-1.58c3.38-4.48 10.87-21.07 13.48-39.58 2.76-13.41 3.27-51.4 1.2-63.61zM22.33 28.15a99.13 99.13 0 00-10.14.53c1.13-1.75 9-3.24 10.14-3.45 1.15.21 9 1.7 10.14 3.45a99.28 99.28 0 00-10.14-.53z"/></symbol><symbol id="icon-bread" viewBox="0 0 22.07 21.21"><path d="M21.81 0h-.1c-1 3.3-1.26 7.32-4 8.85-.51-1.44-1.77-2.1-3.19-2.73A9.62 9.62 0 0011.68 5a1 1 0 00-.65.14.92.92 0 00-.64-.14 9.62 9.62 0 00-2.83 1.12c-1.43.63-2.68 1.29-3.19 2.73C1.61 7.32 1.35 3.3.36 0h-.1A6.2 6.2 0 000 1a110.34 110.34 0 00.82 12.22c.53 2.7 2.61 4.64 4.63 5.92C6.86 20 9.1 21.21 11 21.21s4.2-1.21 5.62-2.07c2-1.28 4.09-3.22 4.63-5.92A110.34 110.34 0 0022.07 1a6.2 6.2 0 00-.26-1zm-6 12a1.8 1.8 0 01-1.44 1.49c-1.28.07-1.93-1.89-3.37-1.88s-2.09 1.95-3.37 1.88A1.8 1.8 0 016.22 12a3.24 3.24 0 01.72-2.42c.47-.46 1.21-.4 2-.51A3.68 3.68 0 0011 8.26a3.71 3.71 0 002.08.84c.8.11 1.54.05 2 .51a3.24 3.24 0 01.76 2.39z"/></symbol><symbol id="icon-check" viewBox="0 0 21.7 16.09"><path d="M21.41.3a1 1 0 00-1.42 0L6.61 13.68l-4.9-4.9a1 1 0 00-1.41 0 1 1 0 000 1.41l5.6 5.61a1 1 0 00.71.29 1 1 0 00.71-.29L21.41 1.71a1 1 0 000-1.41z"/></symbol><symbol id="icon-clock" viewBox="0 0 141.67 139.54"><path class="cls-1" d="M71.83 21.46V1a1 1 0 00-2 0v20.46h1zm-26.06 6.98c.57-.35 1.15-.68 1.73-1L37.26 9.74a1 1 0 00-1.36-.36 1 1 0 00-.37 1.36zM10.5 34.73a1 1 0 00.37 1.36l17.68 10.27c.32-.58.65-1.16 1-1.73L11.87 34.36a1 1 0 00-1.37.37zm95.91-26.21a1 1 0 00-1.37.36l-10.8 18.6c.58.33 1.16.66 1.73 1l10.8-18.59a1 1 0 00-.36-1.37zm25.37 27.15a1 1 0 00.37-1.37 1 1 0 00-1.37-.36l-18.61 10.77c.34.56.67 1.14 1 1.73zM22.5 69.77v-1H1a1 1 0 000 2h21.53c-.01-.33-.03-.66-.03-1zm118.17-1h-21.53v2h21.53a1 1 0 100-2zm-9.87 34.68l-17.68-10.27c-.32.58-.65 1.16-1 1.73l17.68 10.27a1 1 0 101-1.73zm-120.92.42a1 1 0 00.51 1.87.93.93 0 00.5-.14L29.5 94.84c-.35-.57-.67-1.15-1-1.74zm86.02 7.23c-.57.35-1.15.68-1.73 1l10.23 17.7a1 1 0 00.87.5.93.93 0 00.5-.14 1 1 0 00.36-1.36zm-61.01 18.55a1 1 0 00.37 1.37 1 1 0 00.5.14 1 1 0 00.86-.5l10.81-18.6c-.59-.33-1.17-.65-1.73-1zm34.94-11.57v20.46a1 1 0 002 0v-20.46h-1zm34.92-66.19a1.503 1.503 0 00-1.51-2.6L74.81 65.74a5.65 5.65 0 00-7.95 0L46.52 53.92a1.503 1.503 0 00-1.51 2.6l20.35 11.82a5.66 5.66 0 1011.14 1.44 5.55 5.55 0 00-.19-1.43zM75.34 66.35v-.08zm.4.59zm-9.78-.05zm.42-.62l-.05.06zm4.45 6.17a2.67 2.67 0 112.67-2.67 2.67 2.67 0 01-2.67 2.67z"/></symbol><symbol id="icon-close" viewBox="0 0 25.92 25.92"><path d="M.37 24.17a1.06 1.06 0 00-.11 1.49 1.06 1.06 0 001.49-.11l23.8-23.8a1.06 1.06 0 00.11-1.49 1.06 1.06 0 00-1.49.11z"/><path d="M.26.26a1.06 1.06 0 00.11 1.49l23.8 23.8a1 1 0 101.38-1.38L1.75.37A1.06 1.06 0 00.26.26z"/></symbol><symbol id="icon-facebook" viewBox="0 0 96.124 96.123"><path d="M72.089.02L59.624 0C45.62 0 36.57 9.285 36.57 23.656v10.907H24.037a1.96 1.96 0 00-1.96 1.961v15.803a1.96 1.96 0 001.96 1.96H36.57v39.876a1.96 1.96 0 001.96 1.96h16.352a1.96 1.96 0 001.96-1.96V54.287h14.654a1.96 1.96 0 001.96-1.96l.006-15.803a1.963 1.963 0 00-1.961-1.961H56.842v-9.246c0-4.444 1.059-6.7 6.848-6.7l8.397-.003a1.96 1.96 0 001.959-1.96V1.98A1.96 1.96 0 0072.089.02z"/></symbol><symbol id="icon-instagram" viewBox="0 0 300 300"><path d="M38.52.012h222.978C282.682.012 300 17.336 300 38.52v222.978c0 21.178-17.318 38.49-38.502 38.49H38.52c-21.184 0-38.52-17.313-38.52-38.49V38.52C0 17.336 17.336.012 38.52.012zm180.026 33.317c-7.438 0-13.505 6.091-13.505 13.525v32.314c0 7.437 6.067 13.514 13.505 13.514h33.903c7.426 0 13.506-6.077 13.506-13.514V46.854c0-7.434-6.08-13.525-13.506-13.525h-33.903zm47.538 93.539h-26.396a87.715 87.715 0 013.86 25.759c0 49.882-41.766 90.34-93.266 90.34-51.487 0-93.254-40.458-93.254-90.34 0-8.963 1.37-17.584 3.861-25.759H33.35V253.6c0 6.563 5.359 11.902 11.916 11.902h208.907c6.563 0 11.911-5.339 11.911-11.902V126.868zm-115.801-35.89c-33.26 0-60.24 26.128-60.24 58.388 0 32.227 26.98 58.375 60.24 58.375 33.278 0 60.259-26.148 60.259-58.375 0-32.261-26.981-58.388-60.259-58.388z"/></symbol><symbol id="icon-locked" viewBox="0 0 15 17"><path d="M13.76 5.44H13A5.5 5.5 0 007.39 0a5.36 5.36 0 00-5.45 5.45h-.63A1 1 0 00.05 6.53v9.05A1 1 0 001.19 17h12.57A1.38 1.38 0 0015 15.58V7s.11-1.56-1.24-1.56zM8.53 15H5.89s.85-3.47.65-3.54a2 2 0 01-1.33-1.93 2 2 0 012-2.06 2 2 0 012 2.06 2.06 2.06 0 01-1.26 1.92c-.18.04.58 3.55.58 3.55zM3.25 5.44A4.1 4.1 0 017.54 1.3a4.09 4.09 0 014.28 4.14z"/></symbol><symbol id="icon-login" viewBox="0 0 16 16"><path d="M0 7h7.01V4.06l3.95 3.95-3.95 3.9V9.06L0 9.02V7z"/><path d="M7.01 0v2h7.02v11.99H7.01V16H16V0H7.01z"/></symbol><symbol id="icon-menu" viewBox="0 0 35.93 19.95"><path d="M0 10a1.07 1.07 0 001.13 1H34.8a1.07 1.07 0 001.13-1 1.07 1.07 0 00-1.13-1H1.13A1.07 1.07 0 000 10zM1.13 0A1.07 1.07 0 000 1a1.07 1.07 0 001.13 1H34.8a1.07 1.07 0 001.13-1 1.07 1.07 0 00-1.13-1zM0 19a1.07 1.07 0 001.13 1H34.8a1 1 0 100-2H1.13A1.07 1.07 0 000 19z"/></symbol><symbol id="icon-mustache" viewBox="0 0 44.98 12.9"><path d="M22.49 8.24a10.46 10.46 0 008.78 4.65C38.43 13.17 45 7.67 45 5.61c-2.78 2.49-7.39 2.72-9.95 1.69-3.78-1.5-3.12-4.49-5.88-6.44a5.12 5.12 0 00-5.68 0 4.68 4.68 0 00-1 .81 4.94 4.94 0 00-1-.81 5.13 5.13 0 00-5.69 0c-2.75 2-2.09 4.93-5.87 6.44-2.56 1-7.17.8-9.93-1.69 0 2.06 6.55 7.56 13.71 7.28a10.46 10.46 0 008.78-4.65z"/></symbol><symbol id="icon-scissors" viewBox="0 0 21 20"><path d="M8.5 4a4 4 0 10-4 4 2.93 2.93 0 001.6-.4L8.5 10l-2.4 2.4a2.93 2.93 0 00-1.6-.4 4 4 0 104 4 2.93 2.93 0 00-.4-1.6l2.4-2.4 7 7h4L8.1 5.6A2.93 2.93 0 008.5 4zm-4 2a2 2 0 112-2 2 2 0 01-2 2zm0 12a2 2 0 112-2 2 2 0 01-2 2zm6-8.5a.5.5 0 11-.5.5.47.47 0 01.5-.5zm11-8.5h-4l-6 6 2 2 8-8z"/></symbol><symbol id="icon-user" viewBox="0 0 15 15"><path d="M14.45 12.58c-.43-.41-.91-1.15-3.23-1.48S9.33 9.59 9.31 9.52s0-.94 0-.94A4 4 0 0010.49 7c.56-.35.77-.4.86-.8 0 0 .17-1.57-.36-1.56 0 0-.25.08-.17-.27a9.62 9.62 0 000-1.86c0-.4 0-1.53-.82-1.68a4.06 4.06 0 00-.93 0C8.8.72 8.46 0 7.94 0L6.87.23c-.52 0-.44.23-.72.27s0-.12-.79 0-1.14 1.27-1.18 1.66a20.39 20.39 0 000 2.1c.08.35-.2.35-.2.35-.51 0-.28 1.52-.28 1.52.07.38 0 .57.72.87a3.21 3.21 0 001.27 1.52v1.07c-.08 0 .25 1.17-2.07 1.51S.88 12.17.44 12.58 0 15 0 15h15s-.11-2-.55-2.42z"/></symbol><symbol id="icon-vk" viewBox="0 0 532.337 532.337"><path d="M471.998 241.286c7.57-9.786 13.58-17.638 18.018-23.562 31.965-42.498 45.82-69.646 41.574-81.482l-1.666-2.772c-1.107-1.665-3.977-3.194-8.592-4.578-4.621-1.383-10.533-1.604-17.736-.691l-79.822.563a22.728 22.728 0 00-5.545.128c-1.848.281-3.047.563-3.605.832-.557.282-1.016.508-1.383.692l-1.107.832c-.924.551-1.939 1.524-3.047 2.914-1.109 1.389-2.039 2.999-2.773 4.853-8.684 22.356-18.568 43.146-29.656 62.363-6.838 11.457-13.123 21.396-18.844 29.792-5.729 8.415-10.533 14.603-14.414 18.568-3.879 3.972-7.393 7.166-10.531 9.56-3.146 2.411-5.545 3.421-7.203 3.054a138.055 138.055 0 01-4.713-1.114c-2.588-1.658-4.67-3.917-6.236-6.787-1.572-2.857-2.631-6.463-3.189-10.808-.551-4.339-.881-8.084-.967-11.23-.098-3.139-.049-7.57.141-13.305.184-5.729.275-9.602.275-11.64 0-7.014.141-14.639.418-22.864.275-8.219.508-14.737.691-19.542.184-4.798.275-9.884.275-15.245 0-5.349-.324-9.56-.975-12.613a44.18 44.18 0 00-2.906-8.868c-1.297-2.858-3.189-5.08-5.686-6.646-2.496-1.573-5.588-2.815-9.283-3.746-9.799-2.222-22.271-3.409-37.418-3.604-34.37-.355-56.451 1.86-66.243 6.658-3.88 2.038-7.393 4.804-10.532 8.317-3.329 4.07-3.788 6.291-1.383 6.646 11.089 1.665 18.936 5.643 23.556 11.922l1.665 3.323c1.291 2.411 2.583 6.659 3.88 12.754 1.292 6.096 2.124 12.84 2.497 20.233.924 13.488.924 25.031 0 34.646-.924 9.614-1.799 17.093-2.631 22.442-.833 5.361-2.081 9.7-3.74 13.023-1.665 3.335-2.772 5.367-3.329 6.107-.557.734-1.016 1.199-1.383 1.384a20.804 20.804 0 01-7.484 1.383c-2.589 0-5.729-1.298-9.425-3.887-3.697-2.576-7.534-6.138-11.5-10.667-3.978-4.522-8.452-10.856-13.446-18.99-4.988-8.121-10.166-17.736-15.521-28.819l-4.431-8.042c-2.772-5.165-6.561-12.699-11.365-22.583s-9.058-19.443-12.748-28.69c-1.481-3.874-3.697-6.83-6.652-8.868l-1.383-.832c-.924-.735-2.405-1.524-4.437-2.351a29.865 29.865 0 00-6.377-1.805l-75.943.551c-7.76 0-13.023 1.763-15.795 5.275l-1.108 1.659c-.56.93-.835 2.411-.835 4.437 0 2.038.557 4.529 1.665 7.479 11.089 26.059 23.146 51.188 36.169 75.386 13.03 24.211 24.346 43.709 33.954 58.489 9.608 14.792 19.4 28.733 29.382 41.854 9.982 13.121 16.585 21.523 19.816 25.214 3.231 3.703 5.771 6.476 7.62 8.317l6.928 6.658c4.431 4.432 10.949 9.743 19.542 15.937 8.592 6.193 18.103 12.289 28.55 18.287 10.435 6.01 22.589 10.899 36.444 14.694 13.856 3.794 27.344 5.317 40.465 4.571h31.874c6.469-.551 11.363-2.576 14.688-6.096l1.107-1.383c.734-1.102 1.432-2.815 2.08-5.123.643-2.307.975-4.853.975-7.619-.191-7.943.416-15.116 1.799-21.481 1.383-6.377 2.955-11.175 4.713-14.418 1.756-3.226 3.738-5.955 5.959-8.177 2.217-2.222 3.783-3.55 4.713-4.015.924-.453 1.666-.777 2.217-.973 4.43-1.476 9.65-.043 15.66 4.296 6.004 4.352 11.641 9.7 16.91 16.077 5.262 6.377 11.59 13.531 18.984 21.481 7.387 7.943 13.855 13.855 19.4 17.735l5.545 3.336c3.695 2.209 8.494 4.241 14.412 6.096 5.912 1.842 11.09 2.307 15.52 1.383l70.955-1.114c7.02 0 12.473-1.15 16.354-3.464 3.879-2.295 6.188-4.853 6.928-7.619.734-2.772.783-5.899.141-9.419-.648-3.507-1.297-5.955-1.939-7.338-.648-1.383-1.25-2.546-1.807-3.464-9.24-16.628-26.885-37.051-52.938-61.255l-.557-.551-.275-.281-.275-.27h-.278c-11.83-11.273-19.309-18.85-22.449-22.736-5.727-7.38-7.025-14.865-3.879-22.441 2.203-5.745 10.514-17.85 24.926-36.333z"/></symbol></svg>